<?xml version="1.0" standalone="no"?><!-- Generator: Gravit.io --><svg xmlns="http://www.w3.org/2000/svg" xmlns:xlink="http://www.w3.org/1999/xlink" style="isolation:isolate" viewBox="19.5 271 481.3 82" width="481.3" height="82"><g id="Group"><path d=" M 112.32 329.44 L 108.96 328.32 L 108.96 328.32 Q 105.44 327.12 102.56 325.88 L 102.56 325.88 L 102.56 325.88 Q 99.68 324.64 97.6 322.88 L 97.6 322.88 L 97.6 322.88 Q 95.52 321.12 94.36 318.68 L 94.36 318.68 L 94.36 318.68 Q 93.2 316.24 93.2 312.72 L 93.2 312.72 L 93.2 312.72 Q 93.2 305.92 98.44 301.84 L 98.44 301.84 L 98.44 301.84 Q 103.68 297.76 113.12 297.76 L 113.12 297.76 L 113.12 297.76 Q 116.56 297.76 119.52 298.24 L 119.52 298.24 L 119.52 298.24 Q 122.48 298.72 124.6 299.72 L 124.6 299.72 L 124.6 299.72 Q 126.72 300.72 127.92 302.28 L 127.92 302.28 L 127.92 302.28 Q 129.12 303.84 129.12 305.92 L 129.12 305.92 L 129.12 305.92 Q 129.12 308 128.16 309.48 L 128.16 309.48 L 128.16 309.48 Q 127.2 310.96 125.84 312 L 125.84 312 L 125.84 312 Q 124.08 310.88 121.12 310.04 L 121.12 310.04 L 121.12 310.04 Q 118.16 309.2 114.64 309.2 L 114.64 309.2 L 114.64 309.2 Q 111.04 309.2 109.36 310.2 L 109.36 310.2 L 109.36 310.2 Q 107.68 311.2 107.68 312.72 L 107.68 312.72 L 107.68 312.72 Q 107.68 313.92 108.72 314.68 L 108.72 314.68 L 108.72 314.68 Q 109.76 315.44 111.84 316.08 L 111.84 316.08 L 116.08 317.44 L 116.08 317.44 Q 123.6 319.84 127.64 323.56 L 127.64 323.56 L 127.64 323.56 Q 131.68 327.28 131.68 333.68 L 131.68 333.68 L 131.68 333.68 Q 131.68 340.48 126.32 344.68 L 126.32 344.68 L 126.32 344.68 Q 120.96 348.88 110.56 348.88 L 110.56 348.88 L 110.56 348.88 Q 106.88 348.88 103.72 348.28 L 103.72 348.28 L 103.72 348.28 Q 100.56 347.68 98.2 346.52 L 98.2 346.52 L 98.2 346.52 Q 95.84 345.36 94.52 343.64 L 94.52 343.64 L 94.52 343.64 Q 93.2 341.92 93.2 339.68 L 93.2 339.68 L 93.2 339.68 Q 93.2 337.36 94.56 335.72 L 94.56 335.72 L 94.56 335.72 Q 95.92 334.08 97.52 333.2 L 97.52 333.2 L 97.52 333.2 Q 99.76 334.96 103 336.24 L 103 336.24 L 103 336.24 Q 106.24 337.52 110.08 337.52 L 110.08 337.52 L 110.08 337.52 Q 114 337.52 115.6 336.32 L 115.6 336.32 L 115.6 336.32 Q 117.2 335.12 117.2 333.52 L 117.2 333.52 L 117.2 333.52 Q 117.2 331.92 115.92 331.08 L 115.92 331.08 L 115.92 331.08 Q 114.64 330.24 112.32 329.44 L 112.32 329.44 L 112.32 329.44 Z  M 156.88 307.52 L 156.88 307.52 L 156.88 307.52 Q 160.16 307.52 163.32 308.44 L 163.32 308.44 L 163.32 308.44 Q 166.48 309.36 168.8 311.2 L 168.8 311.2 L 168.8 311.2 Q 171.2 309.6 174.2 308.56 L 174.2 308.56 L 174.2 308.56 Q 177.2 307.52 181.44 307.52 L 181.44 307.52 L 181.44 307.52 Q 184.48 307.52 187.4 308.32 L 187.4 308.32 L 187.4 308.32 Q 190.32 309.12 192.6 310.84 L 192.6 310.84 L 192.6 310.84 Q 194.88 312.56 196.24 315.4 L 196.24 315.4 L 196.24 315.4 Q 197.6 318.24 197.6 322.32 L 197.6 322.32 L 197.6 347.52 L 197.6 347.52 Q 196.8 347.76 195.08 348 L 195.08 348 L 195.08 348 Q 193.36 348.24 191.52 348.24 L 191.52 348.24 L 191.52 348.24 Q 189.76 348.24 188.36 348 L 188.36 348 L 188.36 348 Q 186.96 347.76 186 347.04 L 186 347.04 L 186 347.04 Q 185.04 346.32 184.52 345.08 L 184.52 345.08 L 184.52 345.08 Q 184 343.84 184 341.84 L 184 341.84 L 184 322.72 L 184 322.72 Q 184 320.32 182.64 319.24 L 182.64 319.24 L 182.64 319.24 Q 181.28 318.16 178.96 318.16 L 178.96 318.16 L 178.96 318.16 Q 177.84 318.16 176.56 318.68 L 176.56 318.68 L 176.56 318.68 Q 175.28 319.2 174.64 319.76 L 174.64 319.76 L 174.64 319.76 Q 174.72 320.08 174.72 320.36 L 174.72 320.36 L 174.72 320.36 Q 174.72 320.64 174.72 320.88 L 174.72 320.88 L 174.72 347.52 L 174.72 347.52 Q 173.84 347.76 172.12 348 L 172.12 348 L 172.12 348 Q 170.4 348.24 168.64 348.24 L 168.64 348.24 L 168.64 348.24 Q 166.88 348.24 165.48 348 L 165.48 348 L 165.48 348 Q 164.08 347.76 163.12 347.04 L 163.12 347.04 L 163.12 347.04 Q 162.16 346.32 161.64 345.08 L 161.64 345.08 L 161.64 345.08 Q 161.12 343.84 161.12 341.84 L 161.12 341.84 L 161.12 322.72 L 161.12 322.72 Q 161.12 320.32 159.64 319.24 L 159.64 319.24 L 159.64 319.24 Q 158.16 318.16 156.08 318.16 L 156.08 318.16 L 156.08 318.16 Q 154.64 318.16 153.6 318.6 L 153.6 318.6 L 153.6 318.6 Q 152.56 319.04 151.84 319.44 L 151.84 319.44 L 151.84 347.52 L 151.84 347.52 Q 151.04 347.76 149.32 348 L 149.32 348 L 149.32 348 Q 147.6 348.24 145.76 348.24 L 145.76 348.24 L 145.76 348.24 Q 144 348.24 142.6 348 L 142.6 348 L 142.6 348 Q 141.2 347.76 140.24 347.04 L 140.24 347.04 L 140.24 347.04 Q 139.28 346.32 138.76 345.08 L 138.76 345.08 L 138.76 345.08 Q 138.24 343.84 138.24 341.84 L 138.24 341.84 L 138.24 317.68 L 138.24 317.68 Q 138.24 315.52 139.16 314.24 L 139.16 314.24 L 139.16 314.24 Q 140.08 312.96 141.68 311.84 L 141.68 311.84 L 141.68 311.84 Q 144.4 309.92 148.44 308.72 L 148.44 308.72 L 148.44 308.72 Q 152.48 307.52 156.88 307.52 Z  M 222.56 338.96 L 222.56 338.96 L 222.56 338.96 Q 223.92 338.96 225.56 338.68 L 225.56 338.68 L 225.56 338.68 Q 227.2 338.4 228 337.92 L 228 337.92 L 228 331.52 L 222.24 332 L 222.24 332 Q 220 332.16 218.56 332.96 L 218.56 332.96 L 218.56 332.96 Q 217.12 333.76 217.12 335.36 L 217.12 335.36 L 217.12 335.36 Q 217.12 336.96 218.36 337.96 L 218.36 337.96 L 218.36 337.96 Q 219.6 338.96 222.56 338.96 Z  M 221.92 307.52 L 221.92 307.52 L 221.92 307.52 Q 226.24 307.52 229.8 308.4 L 229.8 308.4 L 229.8 308.4 Q 233.36 309.28 235.88 311.08 L 235.88 311.08 L 235.88 311.08 Q 238.4 312.88 239.76 315.64 L 239.76 315.64 L 239.76 315.64 Q 241.12 318.4 241.12 322.16 L 241.12 322.16 L 241.12 340.08 L 241.12 340.08 Q 241.12 342.16 239.96 343.48 L 239.96 343.48 L 239.96 343.48 Q 238.8 344.8 237.2 345.76 L 237.2 345.76 L 237.2 345.76 Q 232 348.88 222.56 348.88 L 222.56 348.88 L 222.56 348.88 Q 218.32 348.88 214.92 348.08 L 214.92 348.08 L 214.92 348.08 Q 211.52 347.28 209.08 345.68 L 209.08 345.68 L 209.08 345.68 Q 206.64 344.08 205.32 341.6 L 205.32 341.6 L 205.32 341.6 Q 204 339.12 204 335.84 L 204 335.84 L 204 335.84 Q 204 330.32 207.28 327.36 L 207.28 327.36 L 207.28 327.36 Q 210.56 324.4 217.44 323.68 L 217.44 323.68 L 227.92 322.56 L 227.92 322 L 227.92 322 Q 227.92 319.68 225.88 318.68 L 225.88 318.68 L 225.88 318.68 Q 223.84 317.68 220 317.68 L 220 317.68 L 220 317.68 Q 216.96 317.68 214.08 318.32 L 214.08 318.32 L 214.08 318.32 Q 211.2 318.96 208.88 319.92 L 208.88 319.92 L 208.88 319.92 Q 207.84 319.2 207.12 317.72 L 207.12 317.72 L 207.12 317.72 Q 206.4 316.24 206.4 314.64 L 206.4 314.64 L 206.4 314.64 Q 206.4 312.56 207.4 311.32 L 207.4 311.32 L 207.4 311.32 Q 208.4 310.08 210.48 309.2 L 210.48 309.2 L 210.48 309.2 Q 212.8 308.32 215.96 307.92 L 215.96 307.92 L 215.96 307.92 Q 219.12 307.52 221.92 307.52 Z  M 263.04 320.24 L 263.04 347.52 L 263.04 347.52 Q 262.24 347.76 260.52 348 L 260.52 348 L 260.52 348 Q 258.8 348.24 256.96 348.24 L 256.96 348.24 L 256.96 348.24 Q 255.2 348.24 253.8 348 L 253.8 348 L 253.8 348 Q 252.4 347.76 251.44 347.04 L 251.44 347.04 L 251.44 347.04 Q 250.48 346.32 249.96 345.08 L 249.96 345.08 L 249.96 345.08 Q 249.44 343.84 249.44 341.84 L 249.44 341.84 L 249.44 317.84 L 249.44 317.84 Q 249.44 316 250.12 314.68 L 250.12 314.68 L 250.12 314.68 Q 250.8 313.36 252.08 312.32 L 252.08 312.32 L 252.08 312.32 Q 253.36 311.28 255.24 310.44 L 255.24 310.44 L 255.24 310.44 Q 257.12 309.6 259.28 308.96 L 259.28 308.96 L 259.28 308.96 Q 261.44 308.32 263.76 307.96 L 263.76 307.96 L 263.76 307.96 Q 266.08 307.6 268.4 307.6 L 268.4 307.6 L 268.4 307.6 Q 272.24 307.6 274.48 309.08 L 274.48 309.08 L 274.48 309.08 Q 276.72 310.56 276.72 313.92 L 276.72 313.92 L 276.72 313.92 Q 276.72 315.04 276.4 316.12 L 276.4 316.12 L 276.4 316.12 Q 276.08 317.2 275.6 318.08 L 275.6 318.08 L 275.6 318.08 Q 273.92 318.08 272.16 318.24 L 272.16 318.24 L 272.16 318.24 Q 270.4 318.4 268.72 318.72 L 268.72 318.72 L 268.72 318.72 Q 267.04 319.04 265.56 319.4 L 265.56 319.4 L 265.56 319.4 Q 264.08 319.76 263.04 320.24 L 263.04 320.24 L 263.04 320.24 Z  M 295.92 322.16 L 295.92 334.24 L 295.92 334.24 Q 295.92 336.32 297.24 337.2 L 297.24 337.2 L 297.24 337.2 Q 298.56 338.08 300.96 338.08 L 300.96 338.08 L 300.96 338.08 Q 302.16 338.08 303.44 337.88 L 303.44 337.88 L 303.44 337.88 Q 304.72 337.68 305.68 337.36 L 305.68 337.36 L 305.68 337.36 Q 306.4 338.24 306.92 339.32 L 306.92 339.32 L 306.92 339.32 Q 307.44 340.4 307.44 341.92 L 307.44 341.92 L 307.44 341.92 Q 307.44 344.96 305.16 346.88 L 305.16 346.88 L 305.16 346.88 Q 302.88 348.8 297.12 348.8 L 297.12 348.8 L 297.12 348.8 Q 290.08 348.8 286.28 345.6 L 286.28 345.6 L 286.28 345.6 Q 282.48 342.4 282.48 335.2 L 282.48 335.2 L 282.48 300.96 L 282.48 300.96 Q 283.36 300.72 285 300.44 L 285 300.44 L 285 300.44 Q 286.64 300.16 288.48 300.16 L 288.48 300.16 L 288.48 300.16 Q 292 300.16 293.96 301.4 L 293.96 301.4 L 293.96 301.4 Q 295.92 302.64 295.92 306.64 L 295.92 306.64 L 295.92 311.76 L 306.4 311.76 L 306.4 311.76 Q 306.88 312.64 307.32 313.96 L 307.32 313.96 L 307.32 313.96 Q 307.76 315.28 307.76 316.88 L 307.76 316.88 L 307.76 316.88 Q 307.76 319.68 306.52 320.92 L 306.52 320.92 L 306.52 320.92 Q 305.28 322.16 303.2 322.16 L 303.2 322.16 L 295.92 322.16 L 295.92 322.16 Z  M 332.48 329.44 L 329.12 328.32 L 329.12 328.32 Q 325.6 327.12 322.72 325.88 L 322.72 325.88 L 322.72 325.88 Q 319.84 324.64 317.76 322.88 L 317.76 322.88 L 317.76 322.88 Q 315.68 321.12 314.52 318.68 L 314.52 318.68 L 314.52 318.68 Q 313.36 316.24 313.36 312.72 L 313.36 312.72 L 313.36 312.72 Q 313.36 305.92 318.6 301.84 L 318.6 301.84 L 318.6 301.84 Q 323.84 297.76 333.28 297.76 L 333.28 297.76 L 333.28 297.76 Q 336.72 297.76 339.68 298.24 L 339.68 298.24 L 339.68 298.24 Q 342.64 298.72 344.76 299.72 L 344.76 299.72 L 344.76 299.72 Q 346.88 300.72 348.08 302.28 L 348.08 302.28 L 348.08 302.28 Q 349.28 303.84 349.28 305.92 L 349.28 305.92 L 349.28 305.92 Q 349.28 308 348.32 309.48 L 348.32 309.48 L 348.32 309.48 Q 347.36 310.96 346 312 L 346 312 L 346 312 Q 344.24 310.88 341.28 310.04 L 341.28 310.04 L 341.28 310.04 Q 338.32 309.2 334.8 309.2 L 334.8 309.2 L 334.8 309.2 Q 331.2 309.2 329.52 310.2 L 329.52 310.2 L 329.52 310.2 Q 327.84 311.2 327.84 312.72 L 327.84 312.72 L 327.84 312.72 Q 327.84 313.92 328.88 314.68 L 328.88 314.68 L 328.88 314.68 Q 329.92 315.44 332 316.08 L 332 316.08 L 336.24 317.44 L 336.24 317.44 Q 343.76 319.84 347.8 323.56 L 347.8 323.56 L 347.8 323.56 Q 351.84 327.28 351.84 333.68 L 351.84 333.68 L 351.84 333.68 Q 351.84 340.48 346.48 344.68 L 346.48 344.68 L 346.48 344.68 Q 341.12 348.88 330.72 348.88 L 330.72 348.88 L 330.72 348.88 Q 327.04 348.88 323.88 348.28 L 323.88 348.28 L 323.88 348.28 Q 320.72 347.68 318.36 346.52 L 318.36 346.52 L 318.36 346.52 Q 316 345.36 314.68 343.64 L 314.68 343.64 L 314.68 343.64 Q 313.36 341.92 313.36 339.68 L 313.36 339.68 L 313.36 339.68 Q 313.36 337.36 314.72 335.72 L 314.72 335.72 L 314.72 335.72 Q 316.08 334.08 317.68 333.2 L 317.68 333.2 L 317.68 333.2 Q 319.92 334.96 323.16 336.24 L 323.16 336.24 L 323.16 336.24 Q 326.4 337.52 330.24 337.52 L 330.24 337.52 L 330.24 337.52 Q 334.16 337.52 335.76 336.32 L 335.76 336.32 L 335.76 336.32 Q 337.36 335.12 337.36 333.52 L 337.36 333.52 L 337.36 333.52 Q 337.36 331.92 336.08 331.08 L 336.08 331.08 L 336.08 331.08 Q 334.8 330.24 332.48 329.44 L 332.48 329.44 L 332.48 329.44 Z  M 380.32 318.24 L 380.32 318.24 L 380.32 318.24 Q 378.32 318.24 376.52 318.88 L 376.52 318.88 L 376.52 318.88 Q 374.72 319.52 373.4 320.76 L 373.4 320.76 L 373.4 320.76 Q 372.08 322 371.28 323.84 L 371.28 323.84 L 371.28 323.84 Q 370.48 325.68 370.48 328.16 L 370.48 328.16 L 370.48 328.16 Q 370.48 333.12 373.32 335.6 L 373.32 335.6 L 373.32 335.6 Q 376.16 338.08 380.24 338.08 L 380.24 338.08 L 380.24 338.08 Q 382.64 338.08 384.4 337.52 L 384.4 337.52 L 384.4 337.52 Q 386.16 336.96 387.52 336.32 L 387.52 336.32 L 387.52 336.32 Q 389.12 337.44 389.92 338.76 L 389.92 338.76 L 389.92 338.76 Q 390.72 340.08 390.72 341.92 L 390.72 341.92 L 390.72 341.92 Q 390.72 345.2 387.6 347 L 387.6 347 L 387.6 347 Q 384.48 348.8 378.96 348.8 L 378.96 348.8 L 378.96 348.8 Q 373.92 348.8 369.84 347.32 L 369.84 347.32 L 369.84 347.32 Q 365.76 345.84 362.84 343.16 L 362.84 343.16 L 362.84 343.16 Q 359.92 340.48 358.32 336.72 L 358.32 336.72 L 358.32 336.72 Q 356.72 332.96 356.72 328.4 L 356.72 328.4 L 356.72 328.4 Q 356.72 323.12 358.44 319.16 L 358.44 319.16 L 358.44 319.16 Q 360.16 315.2 363.12 312.64 L 363.12 312.64 L 363.12 312.64 Q 366.08 310.08 369.96 308.8 L 369.96 308.8 L 369.96 308.8 Q 373.84 307.52 378.16 307.52 L 378.16 307.52 L 378.16 307.52 Q 383.92 307.52 387.04 309.6 L 387.04 309.6 L 387.04 309.6 Q 390.16 311.68 390.16 314.96 L 390.16 314.96 L 390.16 314.96 Q 390.16 316.48 389.44 317.8 L 389.44 317.8 L 389.44 317.8 Q 388.72 319.12 387.76 320.08 L 387.76 320.08 L 387.76 320.08 Q 386.4 319.44 384.48 318.84 L 384.48 318.84 L 384.48 318.84 Q 382.56 318.24 380.32 318.24 Z  M 414.16 338.96 L 414.16 338.96 L 414.16 338.96 Q 415.52 338.96 417.16 338.68 L 417.16 338.68 L 417.16 338.68 Q 418.8 338.4 419.6 337.92 L 419.6 337.92 L 419.6 331.52 L 413.84 332 L 413.84 332 Q 411.6 332.16 410.16 332.96 L 410.16 332.96 L 410.16 332.96 Q 408.72 333.76 408.72 335.36 L 408.72 335.36 L 408.72 335.36 Q 408.72 336.96 409.96 337.96 L 409.96 337.96 L 409.96 337.96 Q 411.2 338.96 414.16 338.96 Z  M 413.52 307.52 L 413.52 307.52 L 413.52 307.52 Q 417.84 307.52 421.4 308.4 L 421.4 308.4 L 421.4 308.4 Q 424.96 309.28 427.48 311.08 L 427.48 311.08 L 427.48 311.08 Q 430 312.88 431.36 315.64 L 431.36 315.64 L 431.36 315.64 Q 432.72 318.4 432.72 322.16 L 432.72 322.16 L 432.72 340.08 L 432.72 340.08 Q 432.72 342.16 431.56 343.48 L 431.56 343.48 L 431.56 343.48 Q 430.4 344.8 428.8 345.76 L 428.8 345.76 L 428.8 345.76 Q 423.6 348.88 414.16 348.88 L 414.16 348.88 L 414.16 348.88 Q 409.92 348.88 406.52 348.08 L 406.52 348.08 L 406.52 348.08 Q 403.12 347.28 400.68 345.68 L 400.68 345.68 L 400.68 345.68 Q 398.24 344.08 396.92 341.6 L 396.92 341.6 L 396.92 341.6 Q 395.6 339.12 395.6 335.84 L 395.6 335.84 L 395.6 335.84 Q 395.6 330.32 398.88 327.36 L 398.88 327.36 L 398.88 327.36 Q 402.16 324.4 409.04 323.68 L 409.04 323.68 L 419.52 322.56 L 419.52 322 L 419.52 322 Q 419.52 319.68 417.48 318.68 L 417.48 318.68 L 417.48 318.68 Q 415.44 317.68 411.6 317.68 L 411.6 317.68 L 411.6 317.68 Q 408.56 317.68 405.68 318.32 L 405.68 318.32 L 405.68 318.32 Q 402.8 318.96 400.48 319.92 L 400.48 319.92 L 400.48 319.92 Q 399.44 319.2 398.72 317.72 L 398.72 317.72 L 398.72 317.72 Q 398 316.24 398 314.64 L 398 314.64 L 398 314.64 Q 398 312.56 399 311.32 L 399 311.32 L 399 311.32 Q 400 310.08 402.08 309.2 L 402.08 309.2 L 402.08 309.2 Q 404.4 308.32 407.56 307.92 L 407.56 307.92 L 407.56 307.92 Q 410.72 307.52 413.52 307.52 Z  M 454.88 301.12 L 454.88 347.52 L 454.88 347.52 Q 454 347.68 452.28 347.96 L 452.28 347.96 L 452.28 347.96 Q 450.56 348.24 448.8 348.24 L 448.8 348.24 L 448.8 348.24 Q 447.04 348.24 445.64 348 L 445.64 348 L 445.64 348 Q 444.24 347.76 443.28 347.04 L 443.28 347.04 L 443.28 347.04 Q 442.32 346.32 441.8 345.08 L 441.8 345.08 L 441.8 345.08 Q 441.28 343.84 441.28 341.84 L 441.28 341.84 L 441.28 295.44 L 441.28 295.44 Q 442.16 295.28 443.88 295 L 443.88 295 L 443.88 295 Q 445.6 294.72 447.36 294.72 L 447.36 294.72 L 447.36 294.72 Q 449.12 294.72 450.52 294.96 L 450.52 294.96 L 450.52 294.96 Q 451.92 295.2 452.88 295.92 L 452.88 295.92 L 452.88 295.92 Q 453.84 296.64 454.36 297.88 L 454.36 297.88 L 454.36 297.88 Q 454.88 299.12 454.88 301.12 L 454.88 301.12 L 454.88 301.12 Z  M 484 348.88 L 484 348.88 L 484 348.88 Q 479.28 348.88 475.24 347.56 L 475.24 347.56 L 475.24 347.56 Q 471.2 346.24 468.2 343.6 L 468.2 343.6 L 468.2 343.6 Q 465.2 340.96 463.48 336.96 L 463.48 336.96 L 463.48 336.96 Q 461.76 332.96 461.76 327.6 L 461.76 327.6 L 461.76 327.6 Q 461.76 322.32 463.48 318.52 L 463.48 318.52 L 463.48 318.52 Q 465.2 314.72 468 312.28 L 468 312.28 L 468 312.28 Q 470.8 309.84 474.4 308.68 L 474.4 308.68 L 474.4 308.68 Q 478 307.52 481.76 307.52 L 481.76 307.52 L 481.76 307.52 Q 486 307.52 489.48 308.8 L 489.48 308.8 L 489.48 308.8 Q 492.96 310.08 495.48 312.32 L 495.48 312.32 L 495.48 312.32 Q 498 314.56 499.4 317.68 L 499.4 317.68 L 499.4 317.68 Q 500.8 320.8 500.8 324.48 L 500.8 324.48 L 500.8 324.48 Q 500.8 327.2 499.28 328.64 L 499.28 328.64 L 499.28 328.64 Q 497.76 330.08 495.04 330.48 L 495.04 330.48 L 475.28 333.44 L 475.28 333.44 Q 476.16 336.08 478.88 337.4 L 478.88 337.4 L 478.88 337.4 Q 481.6 338.72 485.12 338.72 L 485.12 338.72 L 485.12 338.72 Q 488.4 338.72 491.32 337.88 L 491.32 337.88 L 491.32 337.88 Q 494.24 337.04 496.08 335.92 L 496.08 335.92 L 496.08 335.92 Q 497.36 336.72 498.24 338.16 L 498.24 338.16 L 498.24 338.16 Q 499.12 339.6 499.12 341.2 L 499.12 341.2 L 499.12 341.2 Q 499.12 344.8 495.76 346.56 L 495.76 346.56 L 495.76 346.56 Q 493.2 347.92 490 348.4 L 490 348.4 L 490 348.4 Q 486.8 348.88 484 348.88 Z  M 481.76 317.44 L 481.76 317.44 L 481.76 317.44 Q 479.84 317.44 478.44 318.08 L 478.44 318.08 L 478.44 318.08 Q 477.04 318.72 476.16 319.72 L 476.16 319.72 L 476.16 319.72 Q 475.28 320.72 474.84 321.96 L 474.84 321.96 L 474.84 321.96 Q 474.4 323.2 474.32 324.48 L 474.32 324.48 L 488 322.24 L 488 322.24 Q 487.76 320.64 486.24 319.04 L 486.24 319.04 L 486.24 319.04 Q 484.72 317.44 481.76 317.44 Z " fill-rule="evenodd" fill="rgb(0,121,203)"/><path d="M 44.5 301 L 59.5 301 C 73.298 301 84.5 312.202 84.5 326 L 84.5 341.844 C 84.5 348.001 79.501 353 73.344 353 L 30.656 353 C 24.499 353 19.5 348.001 19.5 341.844 L 19.5 326 C 19.5 312.202 30.702 301 44.5 301 Z" style="stroke:none;fill:#0079CB;stroke-miterlimit:10;"/><path d=" M 37.5 301 C 37.5 292.721 43.997 286 52 286 C 60.003 286 66.5 292.721 66.5 301 C 66.5 309.279 60.003 316 52 316 C 43.997 316 37.5 309.279 37.5 301 Z " fill="none" vector-effect="non-scaling-stroke" stroke-width="10" stroke="rgb(0,121,203)" stroke-linejoin="miter" stroke-linecap="square" stroke-miterlimit="3"/><path d=" M 40.28 338 L 34.64 331.44 L 34.64 340.28 L 34.64 340.28 Q 34.2 340.4 33.24 340.52 L 33.24 340.52 L 33.24 340.52 Q 32.28 340.64 31.36 340.64 L 31.36 340.64 L 31.36 340.64 Q 30.44 340.64 29.74 340.5 L 29.74 340.5 L 29.74 340.5 Q 29.04 340.36 28.56 340 L 28.56 340 L 28.56 340 Q 28.08 339.64 27.84 339 L 27.84 339 L 27.84 339 Q 27.6 338.36 27.6 337.32 L 27.6 337.32 L 27.6 316.2 L 27.6 316.2 Q 28.04 316.12 29 315.98 L 29 315.98 L 29 315.98 Q 29.96 315.84 30.84 315.84 L 30.84 315.84 L 30.84 315.84 Q 31.76 315.84 32.46 315.98 L 32.46 315.98 L 32.46 315.98 Q 33.16 316.12 33.64 316.48 L 33.64 316.48 L 33.64 316.48 Q 34.12 316.84 34.36 317.48 L 34.36 317.48 L 34.36 317.48 Q 34.6 318.12 34.6 319.16 L 34.6 319.16 L 34.6 325.52 L 42.92 315.96 L 42.92 315.96 Q 45.64 315.96 46.82 316.98 L 46.82 316.98 L 46.82 316.98 Q 48 318 48 319.4 L 48 319.4 L 48 319.4 Q 48 320.44 47.48 321.36 L 47.48 321.36 L 47.48 321.36 Q 46.96 322.28 45.8 323.44 L 45.8 323.44 L 40.8 328.44 L 40.8 328.44 Q 41.8 329.56 42.88 330.72 L 42.88 330.72 L 42.88 330.72 Q 43.96 331.88 45 333.02 L 45 333.02 L 45 333.02 Q 46.04 334.16 47.02 335.2 L 47.02 335.2 L 47.02 335.2 Q 48 336.24 48.8 337.08 L 48.8 337.08 L 48.8 337.08 Q 48.8 337.96 48.48 338.64 L 48.48 338.64 L 48.48 338.64 Q 48.16 339.32 47.62 339.8 L 47.62 339.8 L 47.62 339.8 Q 47.08 340.28 46.4 340.52 L 46.4 340.52 L 46.4 340.52 Q 45.72 340.76 44.96 340.76 L 44.96 340.76 L 44.96 340.76 Q 43.32 340.76 42.28 339.94 L 42.28 339.94 L 42.28 339.94 Q 41.24 339.12 40.28 338 L 40.28 338 L 40.28 338 Z  M 74.16 328.32 L 74.16 336.48 L 74.16 336.48 Q 74.16 337.72 73.72 338.32 L 73.72 338.32 L 73.72 338.32 Q 73.28 338.92 72.32 339.48 L 72.32 339.48 L 72.32 339.48 Q 71.76 339.8 70.92 340.1 L 70.92 340.1 L 70.92 340.1 Q 70.08 340.4 69.08 340.62 L 69.08 340.62 L 69.08 340.62 Q 68.08 340.84 66.98 340.96 L 66.98 340.96 L 66.98 340.96 Q 65.88 341.08 64.8 341.08 L 64.8 341.08 L 64.8 341.08 Q 61.92 341.08 59.4 340.3 L 59.4 340.3 L 59.4 340.3 Q 56.88 339.52 55.02 337.94 L 55.02 337.94 L 55.02 337.94 Q 53.16 336.36 52.08 334 L 52.08 334 L 52.08 334 Q 51 331.64 51 328.52 L 51 328.52 L 51 328.52 Q 51 325.24 52.18 322.8 L 52.18 322.8 L 52.18 322.8 Q 53.36 320.36 55.3 318.74 L 55.3 318.74 L 55.3 318.74 Q 57.24 317.12 59.74 316.32 L 59.74 316.32 L 59.74 316.32 Q 62.24 315.52 64.88 315.52 L 64.88 315.52 L 64.88 315.52 Q 68.68 315.52 70.9 316.74 L 70.9 316.74 L 70.9 316.74 Q 73.12 317.96 73.12 319.92 L 73.12 319.92 L 73.12 319.92 Q 73.12 320.96 72.6 321.72 L 72.6 321.72 L 72.6 321.72 Q 72.08 322.48 71.4 322.92 L 71.4 322.92 L 71.4 322.92 Q 70.4 322.32 68.9 321.74 L 68.9 321.74 L 68.9 321.74 Q 67.4 321.16 65.52 321.16 L 65.52 321.16 L 65.52 321.16 Q 62.16 321.16 60.18 323.08 L 60.18 323.08 L 60.18 323.08 Q 58.2 325 58.2 328.4 L 58.2 328.4 L 58.2 328.4 Q 58.2 330.24 58.74 331.58 L 58.74 331.58 L 58.74 331.58 Q 59.28 332.92 60.2 333.78 L 60.2 333.78 L 60.2 333.78 Q 61.12 334.64 62.32 335.06 L 62.32 335.06 L 62.32 335.06 Q 63.52 335.48 64.88 335.48 L 64.88 335.48 L 64.88 335.48 Q 65.76 335.48 66.44 335.32 L 66.44 335.32 L 66.44 335.32 Q 67.12 335.16 67.48 334.96 L 67.48 334.96 L 67.48 331.2 L 63.2 331.2 L 63.2 331.2 Q 62.96 330.76 62.74 330.04 L 62.74 330.04 L 62.74 330.04 Q 62.52 329.32 62.52 328.52 L 62.52 328.52 L 62.52 328.52 Q 62.52 327.08 63.18 326.44 L 63.18 326.44 L 63.18 326.44 Q 63.84 325.8 64.88 325.8 L 64.88 325.8 L 71.64 325.8 L 71.64 325.8 Q 72.84 325.8 73.5 326.46 L 73.5 326.46 L 73.5 326.46 Q 74.16 327.12 74.16 328.32 L 74.16 328.32 L 74.16 328.32 Z " fill-rule="evenodd" fill="rgb(255,255,255)"/></g></svg>